<svg width="32" height="32" viewBox="0 0 32 32" fill="none" xmlns="http://www.w3.org/2000/svg">
<g clip-path="url(#clip0_55_1229)">
<path d="M0.778076 31.3266H20.9379C21.6513 31.3266 22.2535 30.8589 22.4573 30.2134L27.9605 16.0983H29.7485C30.6287 16.0983 31.3421 15.378 31.3421 14.4894C31.3421 13.6007 30.6287 12.8805 29.7485 12.8805H25.6258C24.7456 12.8805 24.0323 13.6007 24.0323 14.4894C24.0323 15.378 24.7456 16.0983 25.6258 16.0983H27.6177" stroke="#5E6C75" stroke-width="1.08639" stroke-linecap="round" stroke-linejoin="round"/>
<path d="M14.3602 0.673584C16.2038 0.673584 17.6954 2.17958 17.6954 4.04102C17.6954 5.90247 16.2038 7.40846 14.3602 7.40846C12.5165 7.40846 11.0249 5.90247 11.0249 4.04102C11.0249 2.17958 12.5165 0.673584 14.3602 0.673584Z" stroke="#5E6C75" stroke-width="1.08639" stroke-linecap="round" stroke-linejoin="round"/>
<path d="M10.4226 11.7208L7.00399 23.7687C6.25356 23.5068 5.10474 23.273 4.24314 23.0765C3.27035 22.852 2.04742 22.3095 1.14875 23.2262C0.824491 23.5536 0.657727 24.0026 0.666992 24.4609L0.731844 24.938C0.84302 25.3495 1.10243 25.7331 1.51934 25.9763C2.01963 26.2756 3.83549 26.6965 4.50254 26.8836C6.374 27.3981 9.02368 28.8947 9.82044 26.6123L11.9698 20.9532L16.4539 22.7678C16.667 24.1896 15.0827 28.6141 15.8054 29.7272C16.1482 30.251 16.7411 30.541 17.334 30.541L17.788 30.4755C18.1215 30.382 18.4365 30.1856 18.6867 29.8862C19.1406 29.325 19.9837 24.3487 20.132 23.273C20.2895 22.0756 20.7249 20.7661 19.5298 20.0271L13.5911 17.7167C13.8135 16.7719 14.4157 15.4811 14.7863 14.5457C15.0086 13.9751 15.546 11.6272 16.2686 11.8985C19.0202 12.9087 20.1598 14.7234 22.0497 11.6272C22.9855 10.1025 25.7371 7.07184 23.6062 5.72487C21.1696 4.18146 20.2246 9.71902 18.7979 9.35422C16.8708 8.86781 13.795 7.43665 11.8679 7.69856C10.645 7.85758 9.07 8.35334 7.85634 8.69009C6.374 9.10166 5.03989 8.92393 4.8546 10.5515C4.66931 12.2072 3.2055 17.1274 6.26282 16.7158C7.53208 16.5474 7.52281 14.6953 7.64325 13.7132C7.7359 13.0116 7.59693 12.3101 8.28251 12.1604C8.87545 12.0295 9.83897 11.7301 10.4226 11.7208Z" stroke="#5E6C75" stroke-width="1.08639" stroke-linecap="round" stroke-linejoin="round"/>
</g>
<defs>
<clipPath id="clip0_55_1229">
<rect width="32" height="32" fill="white"/>
</clipPath>
</defs>
</svg>
