<svg width="50" height="50" viewBox="0 0 50 50" fill="none" xmlns="http://www.w3.org/2000/svg">
<rect width="50" height="50" rx="10" fill="#EEF1F5"/>
<g clip-path="url(#clip0_52_910)">
<path d="M10.7778 40.3266H30.9376C31.651 40.3266 32.2532 39.8589 32.457 39.2134L37.9602 25.0983H39.7483C40.6284 25.0983 41.3418 24.378 41.3418 23.4894C41.3418 22.6007 40.6284 21.8805 39.7483 21.8805H35.6255C34.7454 21.8805 34.032 22.6007 34.032 23.4894C34.032 24.378 34.7454 25.0983 35.6255 25.0983H37.6174" stroke="#5E6C75" stroke-width="1.08639" stroke-linecap="round" stroke-linejoin="round"/>
<path d="M24.3602 9.67358C26.2038 9.67358 27.6954 11.1796 27.6954 13.041C27.6954 14.9025 26.2038 16.4085 24.3602 16.4085C22.5165 16.4085 21.0249 14.9025 21.0249 13.041C21.0249 11.1796 22.5165 9.67358 24.3602 9.67358Z" stroke="#5E6C75" stroke-width="1.08639" stroke-linecap="round" stroke-linejoin="round"/>
<path d="M20.4225 20.7208L17.0039 32.7687C16.2534 32.5068 15.1046 32.273 14.243 32.0765C13.2702 31.852 12.0473 31.3095 11.1486 32.2262C10.8244 32.5536 10.6576 33.0026 10.6669 33.4609L10.7317 33.938C10.8429 34.3495 11.1023 34.7331 11.5192 34.9763C12.0195 35.2756 13.8354 35.6965 14.5024 35.8836C16.3739 36.3981 19.0236 37.8947 19.8203 35.6123L21.9697 29.9532L26.4538 31.7678C26.6669 33.1896 25.0826 37.6141 25.8053 38.7272C26.148 39.251 26.741 39.541 27.3339 39.541L27.7879 39.4755C28.1214 39.382 28.4364 39.1856 28.6866 38.8862C29.1405 38.325 29.9836 33.3487 30.1318 32.273C30.2893 31.0756 30.7248 29.7661 29.5296 29.0271L23.591 26.7167C23.8134 25.7719 24.4156 24.4811 24.7862 23.5457C25.0085 22.9751 25.5458 20.6272 26.2685 20.8985C29.0201 21.9087 30.1596 23.7234 32.0496 20.6272C32.9853 19.1025 35.7369 16.0718 33.6061 14.7249C31.1695 13.1815 30.2245 18.719 28.7977 18.3542C26.8707 17.8678 23.7948 16.4367 21.8678 16.6986C20.6449 16.8576 19.0699 17.3533 17.8562 17.6901C16.3739 18.1017 15.0398 17.9239 14.8545 19.5515C14.6692 21.2072 13.2054 26.1274 16.2627 25.7158C17.532 25.5474 17.5227 23.6953 17.6431 22.7132C17.7358 22.0116 17.5968 21.3101 18.2824 21.1604C18.8753 21.0295 19.8388 20.7301 20.4225 20.7208Z" stroke="#5E6C75" stroke-width="1.08639" stroke-linecap="round" stroke-linejoin="round"/>
</g>
<defs>
<clipPath id="clip0_52_910">
<rect width="32" height="32" fill="white" transform="translate(10 9)"/>
</clipPath>
</defs>
</svg>
