<svg width="28" height="29" viewBox="0 0 28 29" fill="none" xmlns="http://www.w3.org/2000/svg">
<g clip-path="url(#clip0_367_1701)">
<path d="M0.583984 28.0957H27.4153" stroke="#5D6C75" stroke-width="0.983415" stroke-linecap="round" stroke-linejoin="round"/>
<path d="M14.8437 7.5683C15.4118 7.0382 15.8419 5.65992 15.8419 4.99116C15.8419 3.77599 15.355 2.675 14.5596 1.87576C13.7643 1.07652 12.6686 0.587189 11.4593 0.587189C9.04078 0.587189 7.07673 2.56082 7.07673 4.99116C7.07673 7.42151 9.04078 9.39514 11.4593 9.39514C11.5405 9.39514 11.6217 9.39514 11.6947 9.39514L12.7579 11.0752L6.63035 10.2433C6.45991 10.2188 6.28136 10.227 6.0947 10.2596C2.10977 11.0018 1.71209 17.8524 3.32716 22.6234C4.60948 26.4157 6.94687 29.213 10.4773 27.2068L16.3695 21.922L22.1561 27.2557C22.8217 27.9489 24.3393 27.9652 25.0292 27.2883C25.719 26.6196 25.7353 25.5104 25.0617 24.8254L17.6761 17.1592C17.7411 16.833 15.8257 16.1805 14.9411 17.0532L14.9005 17.0939L9.94165 20.8944C9.50339 18.725 8.55383 14.3782 11.6135 14.5086L15.9393 14.6962C16.897 14.7452 17.7086 13.9948 17.7573 13.0325C17.7735 12.6003 17.6356 12.2006 17.3921 11.8826L13.7561 6.16556C12.8877 4.59154 11.0698 4.38766 10.4773 5.61098" stroke="#5D6C75" stroke-width="0.983415" stroke-linecap="round" stroke-linejoin="round"/>
</g>
<defs>
<clipPath id="clip0_367_1701">
<rect width="28" height="28.6829" fill="white"/>
</clipPath>
</defs>
</svg>
