<svg width="36" height="28" viewBox="0 0 36 28" fill="none" xmlns="http://www.w3.org/2000/svg">
<g clip-path="url(#clip0_365_1609)">
<path fill-rule="evenodd" clip-rule="evenodd" d="M13.1061 9.73236H9.9211V11.6425C9.9211 11.7828 9.86167 11.9099 9.76542 12.0019C9.66918 12.0938 9.53612 12.1506 9.38939 12.1506H7.39035V15.1941H9.38939C9.53612 15.1941 9.66918 15.2508 9.76542 15.3428C9.86167 15.4348 9.9211 15.5619 9.9211 15.7021V17.6123H13.1061V15.7021C13.1061 15.5619 13.1655 15.4348 13.2618 15.3428C13.358 15.2508 13.4911 15.1941 13.6378 15.1941H15.6368V12.1506H13.6378C13.4911 12.1506 13.358 12.0938 13.2618 12.0019C13.1655 11.9099 13.1061 11.7828 13.1061 11.6425V9.73236ZM28.2364 20.5618C27.2697 20.5618 26.3946 20.9362 25.7614 21.5412C25.1282 22.1463 24.7364 22.9826 24.7364 23.9062C24.7364 24.8299 25.1282 25.6662 25.7614 26.2712C26.3946 26.8763 27.2697 27.2507 28.2364 27.2507C29.203 27.2507 30.0782 26.8763 30.7114 26.2712C31.3446 25.6662 31.7364 24.8299 31.7364 23.9062C31.7364 22.9826 31.3446 22.1463 30.7114 21.5412C30.0782 20.9362 29.203 20.5618 28.2364 20.5618ZM0.783176 17.6123V16.0318H3.70258C3.91873 16.0318 4.09439 15.864 4.09439 15.6574C4.09439 15.4509 3.91873 15.283 3.70258 15.283H0.783176V8.69761C0.783176 8.29657 0.954627 7.93223 1.23074 7.66839C1.50685 7.40455 1.88814 7.24072 2.30783 7.24072H21.4215V13.6809C21.4215 13.8874 21.5971 14.0553 21.8133 14.0553H31.0501C31.1579 14.1513 31.2757 14.2402 31.4051 14.3246L34.3418 16.2399C34.6258 16.4248 34.8446 16.657 34.9919 16.9228C35.1071 17.1314 35.1791 17.3631 35.2049 17.6123H15.3818C14.92 17.6123 14.92 18.3611 15.3818 18.3611H35.2154V22.2875H32.1724C31.9562 21.8076 31.6465 21.3754 31.2657 21.0116C30.4905 20.2708 29.4192 19.8125 28.2364 19.8125C27.0536 19.8125 25.9823 20.2708 25.2071 21.0116C24.8263 21.3754 24.5165 21.8081 24.3004 22.2875H11.5068C11.2906 21.8076 10.9808 21.3754 10.6001 21.0116C9.82485 20.2708 8.75355 19.8125 7.57075 19.8125C6.38794 19.8125 5.31664 20.2708 4.54143 21.0116C4.16066 21.3754 3.85089 21.8081 3.63473 22.2875H0.783176V18.3611H2.93525C3.15141 18.3611 3.32707 18.1933 3.32707 17.9867C3.32707 17.7802 3.15141 17.6123 2.93525 17.6123H0.783176ZM7.57075 22.5388C7.17578 22.5388 6.81762 22.6921 6.55887 22.9393C6.30011 23.1866 6.13971 23.5288 6.13971 23.9062C6.13971 24.2837 6.30011 24.6259 6.55887 24.8731C6.81762 25.1204 7.17578 25.2737 7.57075 25.2737C7.96571 25.2737 8.32387 25.1204 8.58262 24.8731C8.84138 24.6259 9.00178 24.2837 9.00178 23.9062C9.00178 23.5288 8.84138 23.1866 8.58262 22.9393C8.32387 22.6921 7.96571 22.5388 7.57075 22.5388ZM6.00507 22.4096C5.60432 22.7926 5.35661 23.3218 5.35661 23.9057C5.35661 24.4897 5.60432 25.0189 6.00507 25.4018C6.40583 25.7848 6.95962 26.0215 7.57075 26.0215C8.18187 26.0215 8.73567 25.7848 9.13642 25.4018C9.53717 25.0189 9.78488 24.4897 9.78488 23.9057C9.78488 23.3218 9.53717 22.7926 9.13642 22.4096C8.73567 22.0267 8.18187 21.79 7.57075 21.79C6.95962 21.79 6.40583 22.0267 6.00507 22.4096ZM7.57075 20.5613C6.6041 20.5613 5.72896 20.9357 5.09575 21.5407C4.46254 22.1458 4.07072 22.982 4.07072 23.9057C4.07072 24.8294 4.46254 25.6657 5.09575 26.2707C5.72896 26.8758 6.6041 27.2502 7.57075 27.2502C8.53739 27.2502 9.41253 26.8758 10.0457 26.2707C10.679 25.6657 11.0708 24.8294 11.0708 23.9057C11.0708 22.982 10.679 22.1458 10.0457 21.5407C9.41253 20.9357 8.53739 20.5613 7.57075 20.5613ZM11.7581 23.0363C11.8218 23.3167 11.8549 23.6077 11.8549 23.9062C11.8549 24.2048 11.8213 24.4957 11.7581 24.7761H24.05C23.9864 24.4957 23.9533 24.2048 23.9533 23.9062C23.9533 23.6077 23.9869 23.3167 24.05 23.0363H11.7581ZM11.5073 25.5244C11.2911 26.0044 10.9814 26.4366 10.6006 26.8004C9.82538 27.5412 8.75407 27.9995 7.57127 27.9995C6.38847 27.9995 5.31716 27.5412 4.54195 26.8004C4.16118 26.4366 3.85141 26.0039 3.63526 25.5244H1.3212C0.957256 25.5244 0.626976 25.3822 0.387155 25.1536C0.14786 24.9249 -0.000976562 24.6088 -0.000976562 24.261V8.69761C-0.000976562 8.09003 0.258304 7.53823 0.676413 7.1392C1.09452 6.73968 1.67146 6.49192 2.30783 6.49192H22.7805V5.21746C22.7805 4.76215 22.975 4.34855 23.2885 4.04903C23.6019 3.74952 24.0348 3.56357 24.5113 3.56357C24.9878 3.56357 25.4206 3.74952 25.734 4.04903C26.0475 4.34855 26.2421 4.76215 26.2421 5.21746V6.54218C26.635 6.60952 27.0026 6.74219 27.3344 6.93366C27.8304 7.22012 28.2422 7.63874 28.5309 8.16591L31.1689 12.9808C31.2515 13.1321 31.3467 13.2648 31.4587 13.3854C31.5697 13.5045 31.697 13.6095 31.8463 13.707L34.7831 15.6222C35.1733 15.877 35.4773 16.2002 35.684 16.5746C35.8912 16.9495 35.9995 17.3711 35.9995 17.8214V24.261C35.9995 24.6088 35.8507 24.9244 35.6114 25.1536C35.3721 25.3822 35.0413 25.5244 34.6774 25.5244H32.1724C31.9562 26.0044 31.6465 26.4366 31.2657 26.8004C30.4905 27.5412 29.4192 27.9995 28.2364 27.9995C27.0536 27.9995 25.9823 27.5412 25.2071 26.8004C24.8263 26.4366 24.5165 26.0039 24.3004 25.5244H11.5068H11.5073ZM23.5646 6.49142H25.459V5.21696C25.459 4.9687 25.3522 4.74205 25.1802 4.57822C25.0083 4.41388 24.7716 4.31187 24.5118 4.31187C24.252 4.31187 24.0148 4.41388 23.8433 4.57822C23.6714 4.74255 23.5646 4.9687 23.5646 5.21696V6.49142ZM3.38334 24.7761C3.31971 24.4957 3.28657 24.2048 3.28657 23.9062C3.28657 23.6077 3.32023 23.3167 3.38334 23.0363H0.783176V24.2615C0.783176 24.4028 0.843657 24.5309 0.941479 24.6244C1.0393 24.7179 1.17341 24.7756 1.3212 24.7756H3.38334V24.7761ZM28.2364 22.5393C28.6314 22.5393 28.9895 22.6926 29.2483 22.9398C29.507 23.1871 29.6674 23.5293 29.6674 23.9067C29.6674 24.2842 29.507 24.6264 29.2483 24.8736C28.9895 25.1209 28.6314 25.2742 28.2364 25.2742C27.8414 25.2742 27.4833 25.1209 27.2245 24.8736C26.9658 24.6264 26.8053 24.2842 26.8053 23.9067C26.8053 23.5293 26.9658 23.1871 27.2245 22.9398C27.4833 22.6926 27.8414 22.5393 28.2364 22.5393ZM26.6707 22.4101C27.0715 22.0272 27.6253 21.7905 28.2364 21.7905C28.8475 21.7905 29.4013 22.0272 29.8021 22.4101C30.2028 22.7931 30.4505 23.3223 30.4505 23.9062C30.4505 24.4902 30.2028 25.0194 29.8021 25.4023C29.4013 25.7853 28.8475 26.022 28.2364 26.022C27.6253 26.022 27.0715 25.7853 26.6707 25.4023C26.27 25.0194 26.0222 24.4902 26.0222 23.9062C26.0222 23.3223 26.27 22.7931 26.6707 22.4101ZM32.4238 23.0368C32.4874 23.3172 32.5206 23.6082 32.5206 23.9067C32.5206 24.2053 32.4869 24.4962 32.4238 24.7766H34.6779C34.8257 24.7766 34.9598 24.7189 35.0576 24.6254C35.1554 24.5319 35.2159 24.4038 35.2159 24.2625V23.0373H32.4238V23.0368ZM22.2051 7.24122V13.307H30.4663L27.8393 8.51217C27.6195 8.11063 27.3066 7.79252 26.9305 7.57542C26.5555 7.35832 26.1148 7.24122 25.6383 7.24122H22.2051ZM20.7183 4.84356H19.4424C19.2263 4.84356 19.0506 5.01141 19.0506 5.21796C19.0506 5.42451 19.2263 5.59236 19.4424 5.59236H20.7183C20.9345 5.59236 21.1101 5.42451 21.1101 5.21796C21.1101 5.01141 20.9345 4.84356 20.7183 4.84356ZM21.4209 3.08263L20.316 2.47304C20.1293 2.37052 19.8905 2.43183 19.7832 2.61074C19.6759 2.78914 19.7401 3.0173 19.9273 3.11982L21.0323 3.72941C21.219 3.83193 21.4578 3.77062 21.565 3.59171C21.6723 3.41331 21.6082 3.18515 21.4209 3.08263ZM22.953 1.8936C23.0602 2.07201 22.9961 2.30016 22.8089 2.40268C22.6222 2.5052 22.3834 2.44389 22.2761 2.26499L21.6382 1.20913C21.5309 1.03073 21.595 0.80257 21.7823 0.70005C21.969 0.59753 22.2077 0.658841 22.315 0.837749L22.953 1.8936ZM28.3037 5.59236H29.5796C29.7958 5.59236 29.9714 5.42451 29.9714 5.21796C29.9714 5.01141 29.7958 4.84356 29.5796 4.84356H28.3037C28.0876 4.84356 27.9119 5.01141 27.9119 5.21796C27.9119 5.42451 28.0876 5.59236 28.3037 5.59236ZM27.9897 3.72891L29.0947 3.11932C29.2814 3.0168 29.3461 2.78864 29.2388 2.61024C29.1315 2.43183 28.8927 2.37002 28.706 2.47254L27.6011 3.08213C27.4144 3.18465 27.3497 3.41281 27.457 3.59121C27.5643 3.76962 27.803 3.83143 27.9897 3.72891ZM26.7454 2.26649C26.6371 2.4449 26.3983 2.50571 26.2111 2.40268C26.0244 2.29916 25.9607 2.0705 26.0685 1.8921L26.7065 0.836241C26.8148 0.657836 27.0536 0.597028 27.2408 0.70005C27.4275 0.803575 27.4912 1.03173 27.3833 1.21064L26.7454 2.26649ZM24.9026 1.59358C24.9026 1.80013 24.7269 1.96798 24.5107 1.96798C24.2946 1.96798 24.1189 1.80013 24.1189 1.59358V0.374399C24.1189 0.167851 24.2946 0 24.5107 0C24.7269 0 24.9026 0.167851 24.9026 0.374399V1.59358ZM9.66918 8.98356H13.358C13.5032 8.98356 13.6352 9.04035 13.7325 9.13231L13.734 9.13382C13.8303 9.22629 13.8897 9.35293 13.8897 9.49164V11.4018H15.8888C16.0339 11.4018 16.167 11.4591 16.2637 11.5516H16.2643C16.3605 11.6425 16.4199 11.7697 16.4199 11.9099V15.4348C16.4199 15.575 16.3605 15.7021 16.2643 15.7941C16.168 15.8861 16.035 15.9429 15.8882 15.9429H13.8892V17.853C13.8892 17.9932 13.8298 18.1204 13.7335 18.2124H13.733C13.6362 18.3038 13.5032 18.3611 13.358 18.3611H9.66918C9.52245 18.3611 9.38939 18.3043 9.29315 18.2124C9.1969 18.1204 9.13747 17.9932 9.13747 17.853V15.9429H7.13844C6.99276 15.9429 6.86022 15.8861 6.76398 15.7941H6.7624C6.66616 15.7021 6.60673 15.575 6.60673 15.4348V11.9099C6.60673 11.7697 6.66616 11.6425 6.7624 11.5506H6.76293C6.86022 11.4591 6.99275 11.4018 7.13791 11.4018H9.13695V9.49164C9.13695 9.35293 9.1969 9.22579 9.29367 9.13332H9.29315C9.38939 9.04085 9.52245 8.98356 9.66918 8.98356Z" fill="#5D6C75"/>
</g>
<defs>
<clipPath id="clip0_365_1609">
<rect width="36" height="28" fill="white"/>
</clipPath>
</defs>
</svg>
