<svg width="28" height="33" viewBox="0 0 28 33" fill="none" xmlns="http://www.w3.org/2000/svg">
<g clip-path="url(#clip0_55_1201)">
<path d="M13.7373 6.95544C20.9531 6.95544 26.799 12.6347 26.799 19.6449C26.799 26.6552 20.9531 32.3344 13.7373 32.3344C6.5215 32.3344 0.675659 26.6552 0.675659 19.6449C0.675659 12.6347 6.5215 6.95544 13.7373 6.95544Z" stroke="#5D6C75" stroke-width="1.08639" stroke-linecap="round" stroke-linejoin="round"/>
<path d="M12.2173 6.95559V4.08405" stroke="#5D6C75" stroke-width="1.08639" stroke-linecap="round" stroke-linejoin="round"/>
<path d="M15.2574 4.08405V6.95559" stroke="#5D6C75" stroke-width="1.08639" stroke-linecap="round" stroke-linejoin="round"/>
<path d="M22.1261 9.64483L25.4103 6.45422L27.3245 8.31389L24.0309 11.5045" stroke="#5D6C75" stroke-width="1.08639" stroke-linecap="round" stroke-linejoin="round"/>
<path d="M10.3216 0.656372H17.1527C17.4811 0.656372 17.7439 0.911621 17.7439 1.23068V3.18151C17.7439 3.50057 17.4811 3.75582 17.1527 3.75582H10.3216C9.9932 3.75582 9.73047 3.50057 9.73047 3.18151V1.23068C9.73047 0.911621 9.9932 0.656372 10.3216 0.656372Z" stroke="#5D6C75" stroke-width="1.08639" stroke-linecap="round" stroke-linejoin="round"/>
<path d="M10.3686 13.7743C11.8042 13.7743 13.0616 14.5765 13.7372 15.7707C14.4222 14.5765 15.6702 13.7743 17.1058 13.7743C19.264 13.7743 21.0187 15.5975 21.0187 17.84C21.0187 19.1254 20.4463 20.2649 19.5549 21.0124L13.7372 26.6643L7.91949 21.0124C7.02807 20.2649 6.45569 19.1254 6.45569 17.84C6.45569 15.5975 8.21038 13.7743 10.3686 13.7743Z" stroke="#5D6C75" stroke-width="1.08639" stroke-linecap="round" stroke-linejoin="round"/>
</g>
<defs>
<clipPath id="clip0_55_1201">
<rect width="28" height="33" fill="white"/>
</clipPath>
</defs>
</svg>
