<svg width="22" height="22" viewBox="0 0 22 22" fill="none" xmlns="http://www.w3.org/2000/svg">
<path d="M8.25016 0.916656V2.74999H13.7502V0.916656H15.5835V2.74999H19.2502C19.7564 2.74999 20.1668 3.1604 20.1668 3.66666V18.3333C20.1668 18.8396 19.7564 19.25 19.2502 19.25H2.75016C2.24391 19.25 1.8335 18.8396 1.8335 18.3333V3.66666C1.8335 3.1604 2.24391 2.74999 2.75016 2.74999H6.41683V0.916656H8.25016ZM18.3335 10.0833H3.66683V17.4167H18.3335V10.0833ZM6.41683 4.58332H3.66683V8.24999H18.3335V4.58332H15.5835V6.41666H13.7502V4.58332H8.25016V6.41666H6.41683V4.58332Z" fill="#5B5D5F"/>
</svg>
