<svg width="35" height="30" viewBox="0 0 35 30" fill="none" xmlns="http://www.w3.org/2000/svg">
<g clip-path="url(#clip0_365_1689)">
<path d="M29.2732 0.454651H22.3631C21.8243 0.454651 21.3867 0.886578 21.3867 1.41853V5.72416C21.3867 6.25612 21.8243 6.68804 22.3631 6.68804H23.1215C23.2213 6.68804 23.318 6.72745 23.3887 6.79716L24.3282 7.72467C24.405 7.80044 24.5293 7.80044 24.6061 7.72467L25.5456 6.79716C25.6163 6.72745 25.713 6.68804 25.8128 6.68804H29.2732C29.812 6.68804 30.2496 6.25612 30.2496 5.72416V1.41853C30.2496 0.886578 29.812 0.454651 29.2732 0.454651Z" stroke="#5D6C75" stroke-width="0.94294" stroke-linecap="round" stroke-linejoin="round"/>
<path d="M9.68848 22.4936V21.1993C9.68848 18.1652 12.0205 15.6676 15.0126 15.3599C15.3903 15.3205 15.768 15.4372 16.0596 15.6782L16.5954 16.1207C17.119 16.5527 17.8804 16.5527 18.4039 16.1207L18.9397 15.6782C19.2314 15.4372 19.6091 15.3205 19.9867 15.3599C22.9789 15.6676 25.3109 18.1637 25.3109 21.1993V22.4936" stroke="#5D6C75" stroke-width="0.94294" stroke-linecap="round" stroke-linejoin="round"/>
<path d="M17.4995 13.7535C19.2936 13.7535 20.748 12.3177 20.748 10.5466C20.748 8.77549 19.2936 7.33972 17.4995 7.33972C15.7054 7.33972 14.251 8.77549 14.251 10.5466C14.251 12.3177 15.7054 13.7535 17.4995 13.7535Z" stroke="#5D6C75" stroke-width="0.94294" stroke-linecap="round" stroke-linejoin="round"/>
<path d="M15.1136 21.2833C15.6877 20.8888 15.8292 20.1095 15.4296 19.5428C15.03 18.976 14.2406 18.8364 13.6665 19.2309C13.0924 19.6254 12.9509 20.4046 13.3505 20.9714C13.7501 21.5381 14.5395 21.6778 15.1136 21.2833Z" stroke="#5D6C75" stroke-width="0.94294" stroke-linecap="round" stroke-linejoin="round"/>
<path d="M18.8047 21.7737C18.8047 19.3746 19.5938 18.7441 20.5687 18.7441C21.5435 18.7441 22.3326 19.3473 22.3326 21.7737" stroke="#5D6C75" stroke-width="0.94294" stroke-linecap="round" stroke-linejoin="round"/>
<path d="M20.5684 18.7441V15.4584" stroke="#5D6C75" stroke-width="0.94294" stroke-linecap="round" stroke-linejoin="round"/>
<path d="M14.3896 19.0078V15.4584" stroke="#5D6C75" stroke-width="0.94294" stroke-linecap="round" stroke-linejoin="round"/>
<path d="M32.5517 4.35715C33.6494 4.35715 34.5398 5.23616 34.5398 6.31976V23.4893C34.5398 24.5729 33.6494 25.4519 32.5517 25.4519H2.44905C1.35137 25.4519 0.460938 24.5729 0.460938 23.4893V6.32128C0.460938 5.23767 1.35137 4.35866 2.44905 4.35866H19.0801" stroke="#5D6C75" stroke-width="0.94294" stroke-linecap="round" stroke-linejoin="round"/>
<path d="M21.025 25.4534L22.7383 27.9995C23.1835 28.6602 22.703 29.5438 21.8985 29.5438H13.1002C12.2973 29.5438 11.8167 28.6602 12.2619 27.9995L13.9753 25.4534" stroke="#5D6C75" stroke-width="0.94294" stroke-linecap="round" stroke-linejoin="round"/>
</g>
<defs>
<clipPath id="clip0_365_1689">
<rect width="35" height="30" fill="white"/>
</clipPath>
</defs>
</svg>
