<svg width="32" height="27" viewBox="0 0 32 27" fill="none" xmlns="http://www.w3.org/2000/svg">
<g clip-path="url(#clip0_55_1191)">
<path d="M2.70835 14.0281C0.375822 10.3325 -0.375985 6.40131 2.95895 3.13001C4.63606 1.49908 6.82401 0.678894 9.0216 0.678894C16.3276 0.678894 15.065 5.52456 16.0096 6.44845C16.9541 5.52456 15.6915 0.678894 22.9975 0.678894C25.1855 0.678894 27.383 1.49908 29.0505 3.13001C37.2047 11.1056 20.9541 23.0595 16.8963 25.784C15.7975 26.5193 16.1734 26.491 15.0168 25.718C13.465 24.6716 10.3228 22.409 7.38305 19.5714" stroke="#5D6C75" stroke-width="1.08639" stroke-linecap="round" stroke-linejoin="round"/>
<path d="M0.69397 16.5167H7.35421L9.09879 6.36346L11.1132 16.5167H13.947L15.6916 21.3247C17.2819 17.1861 18.3229 14.5464 19.6723 10.0967L21.6096 16.5073H27.4217" stroke="#5D6C75" stroke-width="1.08639" stroke-linecap="round" stroke-linejoin="round"/>
</g>
<defs>
<clipPath id="clip0_55_1191">
<rect width="32" height="27" fill="white"/>
</clipPath>
</defs>
</svg>
