<svg width="24" height="25" viewBox="0 0 24 25" fill="none" xmlns="http://www.w3.org/2000/svg">
<g id="Frame">
<path id="Vector" d="M19 10.5898H20C20.5523 10.5898 21 11.0375 21 11.5898V21.5898C21 22.1421 20.5523 22.5898 20 22.5898H4C3.44772 22.5898 3 22.1421 3 21.5898V11.5898C3 11.0375 3.44772 10.5898 4 10.5898H5V9.58984C5 5.72385 8.13401 2.58984 12 2.58984C15.866 2.58984 19 5.72385 19 9.58984V10.5898ZM17 10.5898V9.58984C17 6.82842 14.7614 4.58984 12 4.58984C9.23858 4.58984 7 6.82842 7 9.58984V10.5898H17ZM11 14.5898V18.5898H13V14.5898H11Z" fill="#99ADD7"/>
</g>
</svg>
