<svg width="24" height="25" viewBox="0 0 24 25" fill="none" xmlns="http://www.w3.org/2000/svg">
<g id="Frame">
<path id="Vector" d="M17.8827 19.8866C16.1814 20.9653 14.1638 21.59 12.0003 21.59C6.60812 21.59 2.12215 17.7102 1.18164 12.59C1.61832 10.2127 2.81932 8.10275 4.52047 6.52442L1.39366 3.39762L2.80788 1.9834L22.6069 21.7823L21.1927 23.1966L17.8827 19.8866ZM5.9356 7.93955C4.60673 9.15 3.6378 10.757 3.22278 12.59C4.14022 16.6419 7.7646 19.59 12.0003 19.59C13.5997 19.59 15.112 19.1696 16.4243 18.4282L14.396 16.3999C13.7023 16.837 12.8808 17.09 12.0003 17.09C9.51498 17.09 7.50026 15.0752 7.50026 12.59C7.50026 11.7094 7.75317 10.8879 8.19031 10.1943L5.9356 7.93955ZM12.9139 14.9178L9.67246 11.6764C9.5613 11.9594 9.50026 12.2675 9.50026 12.59C9.50026 13.9707 10.6196 15.09 12.0003 15.09C12.3227 15.09 12.6309 15.0289 12.9139 14.9178ZM20.8068 17.1823L19.376 15.7515C20.0319 14.8166 20.5154 13.7484 20.7777 12.59C19.8603 8.53803 16.2359 5.59001 12.0003 5.59001C11.1544 5.59001 10.3329 5.70758 9.55249 5.92803L7.97446 4.35C9.22127 3.85944 10.5793 3.59001 12.0003 3.59001C17.3924 3.59001 21.8784 7.46977 22.8189 12.59C22.5067 14.2896 21.8038 15.8526 20.8068 17.1823ZM11.7229 8.09842C11.8146 8.09284 11.9071 8.09001 12.0003 8.09001C14.4855 8.09001 16.5003 10.1047 16.5003 12.59C16.5003 12.6831 16.4974 12.7756 16.4919 12.8673L11.7229 8.09842Z" fill="#A7B6CB"/>
</g>
</svg>
