<svg width="26" height="26" viewBox="0 0 26 26" fill="none" xmlns="http://www.w3.org/2000/svg">
<path d="M13 2.16663C18.98 2.16663 23.8333 7.01996 23.8333 13C23.8333 18.98 18.98 23.8333 13 23.8333C7.01996 23.8333 2.16663 18.98 2.16663 13C2.16663 7.01996 7.01996 2.16663 13 2.16663ZM6.52522 16.7009C8.11503 19.0741 10.503 20.5833 13.173 20.5833C15.843 20.5833 18.2309 19.0741 19.8207 16.7009C18.0792 15.0769 15.7421 14.0833 13.173 14.0833C10.6039 14.0833 8.26682 15.0769 6.52522 16.7009ZM13 11.9166C14.7949 11.9166 16.25 10.4615 16.25 8.66663C16.25 6.87171 14.7949 5.41663 13 5.41663C11.205 5.41663 9.74996 6.87171 9.74996 8.66663C9.74996 10.4615 11.205 11.9166 13 11.9166Z" fill="#6DB0FD"/>
</svg>
