<svg width="33" height="29" viewBox="0 0 33 29" fill="none" xmlns="http://www.w3.org/2000/svg">
<g clip-path="url(#clip0_365_1592)">
<path d="M13.5654 22.3799C15.0014 24.138 18.2381 24.0752 19.9211 22.3799" stroke="#5D6C75" stroke-width="0.943607" stroke-linecap="round" stroke-linejoin="round"/>
<path d="M19.3955 9.06864C19.9921 8.58429 20.098 7.43542 19.945 6.2061C19.8602 5.52482 19.6988 4.78824 19.5089 4.14383" stroke="#5D6C75" stroke-width="0.943607" stroke-linecap="round" stroke-linejoin="round"/>
<path d="M15.6855 9.30914C16.3981 9.08037 16.8611 8.04211 17.1039 6.83039C17.3224 5.74269 17.3997 4.44131 17.324 3.5983" stroke="#5D6C75" stroke-width="0.943607" stroke-linecap="round" stroke-linejoin="round"/>
<path d="M11.8057 8.75188C12.5451 8.80803 13.3047 8.0086 13.9155 6.96363C14.5634 5.85582 15.1196 4.38768 15.2154 3.60165" stroke="#5D6C75" stroke-width="0.943607" stroke-linecap="round" stroke-linejoin="round"/>
<path d="M25.4765 24.2956C26.5529 22.8601 27.5217 21.1372 27.9242 19.4663C28.13 19.5233 28.3426 19.5534 28.5602 19.5534C29.4173 19.5534 30.1827 19.1018 30.7272 18.3727C31.2347 17.6923 31.549 16.7646 31.549 15.7515C31.549 14.7384 31.2347 13.8108 30.7272 13.1303C30.1827 12.4004 29.4173 11.9496 28.5602 11.9496C28.2829 11.9496 28.0107 11.9999 27.7485 12.0937C27.0352 9.65354 25.6899 7.53261 23.9288 5.97229C21.9525 4.22175 19.457 3.17679 16.7438 3.17679C14.0306 3.17679 11.5258 4.22426 9.54872 5.97816C7.79091 7.53764 6.44819 9.65857 5.73734 12.0988C5.47098 12.0016 5.19202 11.9488 4.90381 11.9488C4.04675 11.9488 3.28129 12.4004 2.7368 13.1295C2.22929 13.8099 1.91504 14.7376 1.91504 15.7507C1.91504 16.7638 2.22929 17.6915 2.7368 18.3719C3.28129 19.1009 4.04675 19.5526 4.90381 19.5526C5.12732 19.5526 5.34746 19.5199 5.56089 19.4588C5.92303 20.9663 6.52213 22.3657 7.31197 23.6026C11.2175 29.724 21.1585 30.055 25.4773 24.2947L25.4765 24.2956Z" stroke="#5D6C75" stroke-width="0.943607" stroke-linecap="round" stroke-linejoin="round"/>
<path d="M11.7588 17.6831C11.7588 17.0672 12.3377 16.5677 13.0511 16.5677C13.7006 16.5677 14.2384 16.9817 14.33 17.5197" stroke="#5D6C75" stroke-width="0.943607" stroke-linecap="round" stroke-linejoin="round"/>
<path d="M21.704 17.6831C21.704 17.0672 21.125 16.5677 20.4117 16.5677C19.7622 16.5677 19.2244 16.9817 19.1328 17.5197" stroke="#5D6C75" stroke-width="0.943607" stroke-linecap="round" stroke-linejoin="round"/>
<path d="M5.35158 17.5113C3.55009 17.1065 3.56689 14.363 5.43225 14.3161" stroke="#5D6C75" stroke-width="0.943607" stroke-linecap="round" stroke-linejoin="round"/>
<path d="M28.1139 17.5113C29.9154 17.1065 29.8986 14.363 28.0332 14.3161" stroke="#5D6C75" stroke-width="0.943607" stroke-linecap="round" stroke-linejoin="round"/>
<path d="M20.5938 3.91085C21.9911 2.24578 23.5262 0.140772 25.4739 0.670376C26.2982 1.97344 27.33 3.82286 27.0561 5.45525" stroke="#5D6C75" stroke-width="0.943607" stroke-linecap="round" stroke-linejoin="round"/>
<path d="M27.8857 6.33597C30.2233 6.63764 31.3089 7.39015 32.4113 9.08873C31.3232 10.815 30.1141 11.446 27.7471 12.0929" stroke="#5D6C75" stroke-width="0.943607" stroke-linecap="round" stroke-linejoin="round"/>
<path d="M26.4095 5.53653C27.1095 5.53653 27.6775 6.10217 27.6775 6.80104C27.6775 7.49992 27.1103 8.06556 26.4095 8.06556C25.7088 8.06556 25.1416 7.49992 25.1416 6.80104C25.1416 6.10217 25.7088 5.53653 26.4095 5.53653Z" stroke="#5D6C75" stroke-width="0.943607" stroke-linecap="round" stroke-linejoin="round"/>
<path d="M12.406 3.91087C11.0086 2.2458 9.47433 0.139952 7.52663 0.669556C6.70235 1.97262 5.67052 3.82204 5.94444 5.45443" stroke="#5D6C75" stroke-width="0.943607" stroke-linecap="round" stroke-linejoin="round"/>
<path d="M5.11348 6.33597C2.7759 6.63764 1.6903 7.39015 0.587891 9.08873C1.67602 10.815 2.88514 11.446 5.25212 12.0929" stroke="#5D6C75" stroke-width="0.943607" stroke-linecap="round" stroke-linejoin="round"/>
<path d="M6.59118 5.53653C5.89125 5.53653 5.32324 6.10217 5.32324 6.80104C5.32324 7.49992 5.89041 8.06556 6.59118 8.06556C7.29195 8.06556 7.85912 7.49992 7.85912 6.80104C7.85912 6.10217 7.29195 5.53653 6.59118 5.53653Z" stroke="#5D6C75" stroke-width="0.943607" stroke-linecap="round" stroke-linejoin="round"/>
</g>
<defs>
<clipPath id="clip0_365_1592">
<rect width="33" height="29" fill="white"/>
</clipPath>
</defs>
</svg>
