<svg width="26" height="26" viewBox="0 0 26 26" fill="none" xmlns="http://www.w3.org/2000/svg">
<path d="M2.16663 13C2.16663 18.983 7.01687 23.8333 13 23.8333C18.983 23.8333 23.8333 18.983 23.8333 13C23.8333 7.01691 18.983 2.16667 13 2.16667V4.33333C17.7865 4.33333 21.6666 8.21353 21.6666 13C21.6666 17.7865 17.7865 21.6667 13 21.6667C8.21349 21.6667 4.33329 17.7865 4.33329 13C4.33329 10.0211 5.83624 7.39318 8.12522 5.83322L8.12496 8.66667H10.2916V2.16667H3.79163V4.33333L6.49907 4.33321C3.86827 6.3097 2.16663 9.45612 2.16663 13Z" fill="#4E4E4E"/>
</svg>
