<svg width="22" height="22" viewBox="0 0 22 22" fill="none" xmlns="http://www.w3.org/2000/svg">
<g id="Frame">
<path id="Vector" d="M5.00727 4.06328C6.61418 2.67385 8.70889 1.83337 10.9999 1.83337C16.0625 1.83337 20.1666 5.93743 20.1666 11C20.1666 12.9581 19.5526 14.7729 18.5067 16.2623L15.5833 11H18.3333C18.3333 6.94995 15.05 3.66671 10.9999 3.66671C9.02892 3.66671 7.23954 4.44429 5.9218 5.70943L5.00727 4.06328ZM16.9925 17.9368C15.3856 19.3262 13.2909 20.1667 10.9999 20.1667C5.93731 20.1667 1.83325 16.0626 1.83325 11C1.83325 9.04191 2.44723 7.22719 3.49315 5.73786L6.41659 11H3.66659C3.66659 15.0501 6.94983 18.3334 10.9999 18.3334C12.9709 18.3334 14.7603 17.5558 16.0781 16.2907L16.9925 17.9368Z" fill="#6B6C6C"/>
</g>
</svg>
