<svg width="22" height="22" viewBox="0 0 22 22" fill="none" xmlns="http://www.w3.org/2000/svg">
<g id="Frame">
<path id="Vector" d="M10.9999 1.83337C16.0625 1.83337 20.1666 5.93743 20.1666 11C20.1666 12.9584 19.5525 14.7732 18.5064 16.2626L15.5833 11H18.3333C18.3333 6.94995 15.05 3.66671 10.9999 3.66671C6.94983 3.66671 3.66659 6.94995 3.66659 11C3.66659 15.0501 6.94983 18.3334 10.9999 18.3334C12.9709 18.3334 14.7604 17.5558 16.0781 16.2907L16.993 17.9365C15.386 19.3261 13.2911 20.1667 10.9999 20.1667C5.93731 20.1667 1.83325 16.0626 1.83325 11C1.83325 5.93743 5.93731 1.83337 10.9999 1.83337ZM10.9999 6.41671C12.5187 6.41671 13.7499 7.64793 13.7499 9.16671V10.0834H14.6666V14.6667H7.33325V10.0834H8.24992V9.16671C8.24992 7.64793 9.48109 6.41671 10.9999 6.41671ZM10.9999 8.25004C10.5299 8.25004 10.1424 8.60391 10.0894 9.05981L10.0833 9.16671V10.0834H11.9166V9.16671C11.9166 8.6966 11.5628 8.30916 11.1068 8.25621L10.9999 8.25004Z" fill="#6B6C6C"/>
</g>
</svg>
