<svg width="22" height="22" viewBox="0 0 22 22" fill="none" xmlns="http://www.w3.org/2000/svg">
<g id="Frame">
<path id="Vector" d="M10.0833 1.83337C14.6373 1.83337 18.3333 5.52937 18.3333 10.0834C18.3333 14.6374 14.6373 18.3334 10.0833 18.3334C5.52925 18.3334 1.83325 14.6374 1.83325 10.0834C1.83325 5.52937 5.52925 1.83337 10.0833 1.83337ZM10.0833 16.5C13.6285 16.5 16.4999 13.6286 16.4999 10.0834C16.4999 6.53817 13.6285 3.66671 10.0833 3.66671C6.53804 3.66671 3.66659 6.53817 3.66659 10.0834C3.66659 13.6286 6.53804 16.5 10.0833 16.5ZM17.8614 16.5652L20.4541 19.1579L19.1578 20.4543L16.5651 17.8616L17.8614 16.5652Z" fill="white"/>
</g>
</svg>
