<svg width="20" height="20" viewBox="0 0 20 20" fill="none" xmlns="http://www.w3.org/2000/svg">
<g clip-path="url(#clip0_55_1540)">
<path d="M7.23864 3.33342L9.41083 1.16126C9.73625 0.835815 10.2639 0.835815 10.5893 1.16126L12.7615 3.33342H15.8334C16.2937 3.33342 16.6668 3.70652 16.6668 4.16676V7.23867L18.8389 9.41086C19.1643 9.73627 19.1643 10.2639 18.8389 10.5894L16.6668 12.7615V15.8334C16.6668 16.2937 16.2937 16.6668 15.8334 16.6668H12.7615L10.5893 18.8389C10.2639 19.1644 9.73625 19.1644 9.41083 18.8389L7.23864 16.6668H4.16673C3.7065 16.6668 3.3334 16.2937 3.3334 15.8334V12.7615L1.16123 10.5894C0.835792 10.2639 0.835792 9.73627 1.16123 9.41086L3.3334 7.23867V4.16676C3.3334 3.70652 3.7065 3.33342 4.16673 3.33342H7.23864ZM10.0001 12.5001C11.3808 12.5001 12.5001 11.3808 12.5001 10.0001C12.5001 8.61936 11.3808 7.50009 10.0001 7.50009C8.61933 7.50009 7.50007 8.61936 7.50007 10.0001C7.50007 11.3808 8.61933 12.5001 10.0001 12.5001Z" fill="#ABB3BD"/>
</g>
<defs>
<clipPath id="clip0_55_1540">
<rect width="20" height="20" fill="white"/>
</clipPath>
</defs>
</svg>
