<svg width="28" height="33" viewBox="0 0 28 33" fill="none" xmlns="http://www.w3.org/2000/svg">
<g clip-path="url(#clip0_55_1156)">
<path d="M13.7371 6.95538C20.9529 6.95538 26.7987 12.6347 26.7987 19.6449C26.7987 26.6551 20.9529 32.3344 13.7371 32.3344C6.52126 32.3344 0.675415 26.6551 0.675415 19.6449C0.675415 12.6347 6.52126 6.95538 13.7371 6.95538Z" stroke="#5D6C75" stroke-width="1.08639" stroke-linecap="round" stroke-linejoin="round"/>
<path d="M12.2169 6.95547V4.08392" stroke="#5D6C75" stroke-width="1.08639" stroke-linecap="round" stroke-linejoin="round"/>
<path d="M15.2573 4.08392V6.95547" stroke="#5D6C75" stroke-width="1.08639" stroke-linecap="round" stroke-linejoin="round"/>
<path d="M22.1259 9.64477L25.41 6.45416L27.3242 8.31383L24.0307 11.5044" stroke="#5D6C75" stroke-width="1.08639" stroke-linecap="round" stroke-linejoin="round"/>
<path d="M2.97437 19.6449H5.81753" stroke="#5D6C75" stroke-width="1.08639" stroke-linecap="round" stroke-linejoin="round"/>
<path d="M13.7373 30.1101V27.3479" stroke="#5D6C75" stroke-width="1.08639" stroke-linecap="round" stroke-linejoin="round"/>
<path d="M24.4997 19.6449H21.6659" stroke="#5D6C75" stroke-width="1.08639" stroke-linecap="round" stroke-linejoin="round"/>
<path d="M13.7373 9.18896V11.9511" stroke="#5D6C75" stroke-width="1.08639" stroke-linecap="round" stroke-linejoin="round"/>
<path d="M13.7371 17.7852C14.7974 17.7852 15.6513 18.6239 15.6513 19.6449C15.6513 20.6659 14.788 21.5046 13.7371 21.5046C12.6861 21.5046 11.8229 20.6659 11.8229 19.6449C11.8229 18.6239 12.6861 17.7852 13.7371 17.7852Z" stroke="#5D6C75" stroke-width="1.08639" stroke-linecap="round" stroke-linejoin="round"/>
<path d="M7.09387 13.2272L12.311 18.2957" stroke="#5D6C75" stroke-width="1.08639" stroke-linecap="round" stroke-linejoin="round"/>
<path d="M10.3215 0.656311H17.1526C17.481 0.656311 17.7438 0.91156 17.7438 1.23062V3.18145C17.7438 3.50051 17.481 3.75576 17.1526 3.75576H10.3215C9.99308 3.75576 9.73035 3.50051 9.73035 3.18145V1.23062C9.73035 0.91156 9.99308 0.656311 10.3215 0.656311Z" stroke="#5D6C75" stroke-width="1.08639" stroke-linecap="round" stroke-linejoin="round"/>
</g>
<defs>
<clipPath id="clip0_55_1156">
<rect width="28" height="33" fill="white"/>
</clipPath>
</defs>
</svg>
