<svg width="27" height="30" viewBox="0 0 27 30" fill="none" xmlns="http://www.w3.org/2000/svg">
<g clip-path="url(#clip0_55_1215)">
<path d="M17.1949 24.8148C17.0921 24.8148 16.9893 24.8148 16.8866 24.8148C9.74481 24.1646 6.80761 27.3169 11.0379 29.1687C12.1939 29.6132 21.1597 29.3333 22.9323 29.3333C24.0112 29.3333 24.9018 28.4362 24.9018 27.3416C24.9018 24.8724 21.5964 23.0864 19.8067 21.5803C18.8133 20.7408 17.623 19.8766 17.4261 19.0206C17.2205 18.1646 17.9912 17.0947 17.9912 15.391C19.3528 18.9383 19.8923 18.4362 23.1463 21.5803C23.8828 22.2963 25.0902 22.2963 25.8266 21.5803C26.5716 20.8724 26.5716 19.712 25.8266 19.0041L22.9408 16.214C20.2776 13.6379 20.5688 9.53911 17.9056 9.58026H9.07687C6.4137 9.53911 6.70485 13.6461 4.04167 16.214L1.15585 19.0041C0.419405 19.7202 0.419405 20.8724 1.15585 21.5803C1.90085 22.2881 3.09971 22.2881 3.83615 21.5803C5.67726 19.8025 8.66584 17.9424 8.99124 15.391C8.99124 17.1029 9.76194 18.1729 9.55642 19.0206C9.3509 19.8766 8.16917 20.7408 7.17583 21.5803C5.3861 23.0864 2.08068 24.8724 2.08068 27.3416C2.08068 28.4362 2.97126 29.3333 4.05023 29.3333H9.9332" stroke="#5D6C75" stroke-width="1.08639" stroke-linecap="round" stroke-linejoin="round"/>
<path d="M13.4956 0.592651C11.0637 0.592651 9.10266 2.48566 9.10266 4.81487C9.10266 7.14409 11.0722 9.0371 13.4956 9.0371C15.919 9.0371 17.8886 7.14409 17.8886 4.81487C17.8886 2.48566 15.9276 0.592651 13.4956 0.592651Z" stroke="#5D6C75" stroke-width="1.08639" stroke-linecap="round" stroke-linejoin="round"/>
</g>
<defs>
<clipPath id="clip0_55_1215">
<rect width="27" height="30" fill="white"/>
</clipPath>
</defs>
</svg>
