<svg width="50" height="50" viewBox="0 0 50 50" fill="none" xmlns="http://www.w3.org/2000/svg">
<rect width="50" height="50" rx="10" fill="#EEF1F5"/>
<g clip-path="url(#clip0_24_4147)">
<path d="M29.1949 34.8148C29.0921 34.8148 28.9893 34.8148 28.8866 34.8148C21.7448 34.1646 18.8076 37.3169 23.0379 39.1687C24.1939 39.6132 33.1597 39.3333 34.9323 39.3333C36.0112 39.3333 36.9018 38.4362 36.9018 37.3416C36.9018 34.8724 33.5964 33.0864 31.8067 31.5803C30.8133 30.7408 29.623 29.8766 29.4261 29.0206C29.2205 28.1646 29.9912 27.0947 29.9912 25.391C31.3528 28.9383 31.8923 28.4362 35.1463 31.5803C35.8828 32.2963 37.0902 32.2963 37.8266 31.5803C38.5716 30.8724 38.5716 29.712 37.8266 29.0041L34.9408 26.214C32.2776 23.6379 32.5688 19.5391 29.9056 19.5803H21.0769C18.4137 19.5391 18.7048 23.6461 16.0417 26.214L13.1558 29.0041C12.4194 29.7202 12.4194 30.8724 13.1558 31.5803C13.9009 32.2881 15.0997 32.2881 15.8362 31.5803C17.6773 29.8025 20.6658 27.9424 20.9912 25.391C20.9912 27.1029 21.7619 28.1729 21.5564 29.0206C21.3509 29.8766 20.1692 30.7408 19.1758 31.5803C17.3861 33.0864 14.0807 34.8724 14.0807 37.3416C14.0807 38.4362 14.9713 39.3333 16.0502 39.3333H21.9332" stroke="#5D6C75" stroke-width="1.08639" stroke-linecap="round" stroke-linejoin="round"/>
<path d="M25.4955 10.5927C23.0635 10.5927 21.1025 12.4857 21.1025 14.8149C21.1025 17.1441 23.0721 19.0371 25.4955 19.0371C27.9189 19.0371 29.8885 17.1441 29.8885 14.8149C29.8885 12.4857 27.9275 10.5927 25.4955 10.5927Z" stroke="#5D6C75" stroke-width="1.08639" stroke-linecap="round" stroke-linejoin="round"/>
</g>
<defs>
<clipPath id="clip0_24_4147">
<rect width="27" height="30" fill="white" transform="translate(12 10)"/>
</clipPath>
</defs>
</svg>
