<svg width="18" height="28" viewBox="0 0 18 28" fill="none" xmlns="http://www.w3.org/2000/svg">
<g clip-path="url(#clip0_55_1175)">
<path d="M6.86631 0.530273H6.91799C8.42892 0.530273 9.66527 1.74483 9.66527 3.22912V15.6134C11.784 16.6249 13.2448 18.7593 13.2448 21.2293C13.2448 24.676 10.4003 27.4695 6.89254 27.4695C3.38478 27.4695 0.539551 24.676 0.539551 21.2293C0.539551 18.7593 2.00034 16.6249 4.11903 15.6134V3.22912C4.11903 1.74483 5.35539 0.530273 6.86631 0.530273Z" stroke="#5D6C75" stroke-width="0.885256" stroke-linecap="round" stroke-linejoin="round"/>
<path d="M6.8919 18.6526C8.34036 18.6526 9.51501 19.8065 9.51501 21.2295C9.51501 22.6524 8.34036 23.8063 6.8919 23.8063C5.44345 23.8063 4.2688 22.6524 4.2688 21.2295C4.2688 19.8065 5.44345 18.6526 6.8919 18.6526Z" stroke="#5D6C75" stroke-width="0.885256" stroke-linecap="round" stroke-linejoin="round"/>
<path d="M6.89197 18.389V7.22083" stroke="#5D6C75" stroke-width="0.885256" stroke-linecap="round" stroke-linejoin="round"/>
<path d="M17.4599 2.1637H12.8746" stroke="#5D6C75" stroke-width="0.885256" stroke-linecap="round" stroke-linejoin="round"/>
<path d="M15.5286 5.31799H12.8746" stroke="#5D6C75" stroke-width="0.885256" stroke-linecap="round" stroke-linejoin="round"/>
<path d="M17.4599 8.47241H12.8746" stroke="#5D6C75" stroke-width="0.885256" stroke-linecap="round" stroke-linejoin="round"/>
<path d="M15.5286 11.6267H12.8746" stroke="#5D6C75" stroke-width="0.885256" stroke-linecap="round" stroke-linejoin="round"/>
<path d="M17.4599 14.7806H12.8746" stroke="#5D6C75" stroke-width="0.885256" stroke-linecap="round" stroke-linejoin="round"/>
</g>
<defs>
<clipPath id="clip0_55_1175">
<rect width="18" height="28" fill="white"/>
</clipPath>
</defs>
</svg>
