<svg width="50" height="50" viewBox="0 0 50 50" fill="none" xmlns="http://www.w3.org/2000/svg">
<rect width="50" height="50" rx="10" fill="#EEF1F5"/>
<g clip-path="url(#clip0_24_4151)">
<path d="M22.8663 12.5303H22.918C24.4289 12.5303 25.6653 13.7448 25.6653 15.2291V27.6134C27.784 28.6249 29.2448 30.7593 29.2448 33.2293C29.2448 36.676 26.4003 39.4695 22.8925 39.4695C19.3848 39.4695 16.5396 36.676 16.5396 33.2293C16.5396 30.7593 18.0003 28.6249 20.119 27.6134V15.2291C20.119 13.7448 21.3554 12.5303 22.8663 12.5303Z" stroke="#5D6C75" stroke-width="0.885256" stroke-linecap="round" stroke-linejoin="round"/>
<path d="M22.8917 30.6526C24.3401 30.6526 25.5148 31.8065 25.5148 33.2295C25.5148 34.6524 24.3401 35.8063 22.8917 35.8063C21.4432 35.8063 20.2686 34.6524 20.2686 33.2295C20.2686 31.8065 21.4432 30.6526 22.8917 30.6526Z" stroke="#5D6C75" stroke-width="0.885256" stroke-linecap="round" stroke-linejoin="round"/>
<path d="M22.8921 30.389V19.2208" stroke="#5D6C75" stroke-width="0.885256" stroke-linecap="round" stroke-linejoin="round"/>
<path d="M33.4597 14.1637H28.8745" stroke="#5D6C75" stroke-width="0.885256" stroke-linecap="round" stroke-linejoin="round"/>
<path d="M31.5285 17.318H28.8745" stroke="#5D6C75" stroke-width="0.885256" stroke-linecap="round" stroke-linejoin="round"/>
<path d="M33.4597 20.4724H28.8745" stroke="#5D6C75" stroke-width="0.885256" stroke-linecap="round" stroke-linejoin="round"/>
<path d="M31.5285 23.6267H28.8745" stroke="#5D6C75" stroke-width="0.885256" stroke-linecap="round" stroke-linejoin="round"/>
<path d="M33.4597 26.7806H28.8745" stroke="#5D6C75" stroke-width="0.885256" stroke-linecap="round" stroke-linejoin="round"/>
</g>
<defs>
<clipPath id="clip0_24_4151">
<rect width="18" height="28" fill="white" transform="translate(16 12)"/>
</clipPath>
</defs>
</svg>
