<svg width="22" height="22" viewBox="0 0 22 22" fill="none" xmlns="http://www.w3.org/2000/svg">
<path d="M11 20.1667C5.93743 20.1667 1.83337 16.0626 1.83337 11C1.83337 5.93739 5.93743 1.83333 11 1.83333C16.0626 1.83333 20.1667 5.93739 20.1667 11C20.1667 16.0626 16.0626 20.1667 11 20.1667ZM11 18.3333C15.0501 18.3333 18.3334 15.0501 18.3334 11C18.3334 6.94991 15.0501 3.66667 11 3.66667C6.94995 3.66667 3.66671 6.94991 3.66671 11C3.66671 15.0501 6.94995 18.3333 11 18.3333ZM11.9167 11H15.5834V12.8333H10.0834V6.41667H11.9167V11Z" fill="#E4FEFF"/>
</svg>
