<svg width="22" height="22" viewBox="0 0 22 22" fill="none" xmlns="http://www.w3.org/2000/svg">
<path d="M19.7083 8.24999C19.7083 10.7286 18.1949 12.8538 16.0417 13.7516V13.75C16.0417 9.44679 12.5532 5.95832 8.25001 5.95832H8.24832C9.14625 3.80512 11.2714 2.29166 13.75 2.29166C17.0407 2.29166 19.7083 4.95929 19.7083 8.24999ZM6.41667 2.74999C4.39162 2.74999 2.75 4.39161 2.75 6.41666V7.79166H4.58333V6.41666C4.58333 5.40413 5.40415 4.58332 6.41667 4.58332H7.79167V2.74999H6.41667ZM17.4167 14.2083V15.5833C17.4167 16.5959 16.5959 17.4167 15.5833 17.4167H14.2083V19.25H15.5833C17.6083 19.25 19.25 17.6083 19.25 15.5833V14.2083H17.4167ZM8.25 19.7083C11.5407 19.7083 14.2083 17.0407 14.2083 13.75C14.2083 10.4592 11.5407 7.79166 8.25 7.79166C4.95931 7.79166 2.29167 10.4592 2.29167 13.75C2.29167 17.0407 4.95931 19.7083 8.25 19.7083ZM8.25 11.4583L10.5417 13.75L8.25 16.0417L5.95833 13.75L8.25 11.4583Z" fill="#7F8D9D"/>
</svg>
