<svg width="22" height="22" viewBox="0 0 22 22" fill="none" xmlns="http://www.w3.org/2000/svg">
<path d="M6.41667 1.83334V20.1667H2.75V1.83334H6.41667ZM8.25 1.83334H17.4212C18.4312 1.83334 19.25 2.6567 19.25 3.65824V18.3418C19.25 19.3497 18.4318 20.1667 17.4212 20.1667H8.25V1.83334ZM20.1667 5.50001H22V9.16668H20.1667V5.50001ZM20.1667 11H22V14.6667H20.1667V11ZM13.75 11C14.7626 11 15.5833 10.1792 15.5833 9.16668C15.5833 8.15415 14.7626 7.33334 13.75 7.33334C12.7375 7.33334 11.9167 8.15415 11.9167 9.16668C11.9167 10.1792 12.7375 11 13.75 11ZM11 14.6667H16.5C16.5 13.1479 15.2688 11.9167 13.75 11.9167C12.2312 11.9167 11 13.1479 11 14.6667Z" fill="#7F8D9D"/>
</svg>
